<svg width="1525" height="380" viewBox="0 0 1525 380" fill="none" xmlns="http://www.w3.org/2000/svg">
<path fill-rule="evenodd" clip-rule="evenodd" d="M373 100H339V375H373V100ZM331.5 27C331.5 42 339 49.5 354 49.5H358C373 49.5 380.5 42 380.5 27V22.5C380.5 7.50001 373 0 358 0H354C339 0 331.5 7.50001 331.5 22.5V27ZM870.25 100H904.25V375H870.25V100ZM885.25 49.5C870.25 49.5 862.75 42 862.75 27V22.5C862.75 7.50001 870.25 0 885.25 0H889.25C904.25 0 911.75 7.50001 911.75 22.5V27C911.75 42 904.25 49.5 889.25 49.5H885.25ZM1219.79 352.5C1219.46 345.167 1219.29 331.333 1219.29 311V189C1219.29 157.333 1212.13 133.833 1197.79 118.5C1183.79 102.833 1162.46 95 1133.79 95C1116.46 95 1099.96 98 1084.29 104C1068.96 109.667 1053.63 118.833 1038.29 131.5V127C1038.29 107.667 1033.46 98 1023.79 98C1017.46 98 1008.96 100.5 998.293 105.5C1002.29 114.833 1004.29 144.167 1004.29 193.5V375H1038.29V166.5C1069.63 136.833 1100.29 122 1130.29 122C1149.63 122 1163.63 127.333 1172.29 138C1180.96 148.333 1185.29 165.167 1185.29 188.5V324C1185.29 345.333 1186.13 359.667 1187.79 367C1189.46 374 1192.79 377.5 1197.79 377.5C1207.13 377.5 1215.79 375.5 1223.79 371.5C1221.79 365.833 1220.46 359.5 1219.79 352.5ZM1523.47 241C1524.14 233.333 1524.47 225.667 1524.47 218C1524.47 179.333 1514.64 149.167 1494.97 127.5C1475.3 105.833 1447.97 95 1412.97 95C1374.64 95 1344.47 107.667 1322.47 133C1300.47 158 1289.47 192.667 1289.47 237C1289.47 266.333 1294.3 291.833 1303.97 313.5C1313.64 334.833 1327.47 351.333 1345.47 363C1363.8 374.333 1385.14 380 1409.47 380C1435.8 380 1458.8 373.833 1478.47 361.5C1498.14 348.833 1511.64 331.667 1518.97 310C1509.64 303.667 1502.3 300.5 1496.97 300.5C1492.3 300.5 1488.8 302.667 1486.47 307C1478.14 322.333 1467.64 333.5 1454.97 340.5C1442.64 347.5 1427.47 351 1409.47 351C1383.14 351 1362.47 341.333 1347.47 322C1332.8 302.667 1325.14 275.667 1324.47 241H1523.47ZM1411.47 124C1463.47 124 1489.47 154 1489.47 214H1325.47C1328.14 184.667 1336.8 162.333 1351.47 147C1366.14 131.667 1386.14 124 1411.47 124ZM794.555 102.5C788.555 98.5 779.721 96.5 768.055 96.5C752.721 96.5 738.055 101.5 724.055 111.5C710.055 121.5 699.221 134.167 691.555 149.5V100H657.555V375H691.555V223.5C691.555 194.833 698.221 171.667 711.555 154C725.221 136.333 743.221 127.5 765.555 127.5C779.555 127.5 790.555 129.667 798.555 134C802.221 129.667 804.055 124.833 804.055 119.5C804.055 111.833 800.888 106.167 794.555 102.5ZM599.043 341.5C601.376 343.167 603.21 345.667 604.543 349C606.21 352 607.043 355.167 607.043 358.5C607.043 364.833 604.376 369.333 599.043 372C588.376 377.333 574.543 380 557.543 380C535.876 380 518.543 374.167 505.543 362.5C492.543 350.5 486.043 334.5 486.043 314.5V127H434.043V100H486.043V25H520.043V100H592.043V127H520.043V308C520.043 336 532.043 350 556.043 350C571.376 350 585.71 347.167 599.043 341.5ZM173.939 298.902C182.805 280.716 190.492 262.416 197 244C212.667 199.333 222.5 151.333 226.5 100H192.5C187.833 148.333 179.333 191.333 167 229C163.403 239.89 159.337 250.694 154.804 261.414C160.51 274.012 166.887 286.508 173.939 298.902ZM90.5 244C99.5784 269.69 110.951 295.156 124.619 320.398C130.562 331.375 136.939 342.309 143.75 353.2C148.306 360.486 153.056 367.752 158 375H190.5C219.833 332 242.333 288.333 258 244C273.667 199.333 283.5 151.333 287.5 100H253.5C248.833 148.333 240.333 191.333 228 229C215.667 266.333 197.833 302.667 174.5 338C170.551 332.02 166.754 326.011 163.111 319.974C162.988 319.77 162.865 319.566 162.742 319.362C155.939 308.053 149.671 296.644 143.94 285.135C134.749 266.681 126.936 247.97 120.5 229C108.167 191.333 99.6667 148.333 95 100H61C65 151.333 74.8333 199.333 90.5 244ZM99.6847 315.911C82.9374 287.569 69.5425 258.599 59.5 229C47.1667 191.333 38.6667 148.333 34 100H0C4 151.333 13.8333 199.333 29.5 244C45.1667 288.333 67.6667 332 97 375H129.5C130.262 373.882 131.02 372.764 131.773 371.646C119.892 353.226 109.192 334.648 99.6847 315.911Z" fill="white"/>
</svg>
