<svg width="288" height="275" viewBox="0 0 288 275" fill="none" xmlns="http://www.w3.org/2000/svg">
<path fill-rule="evenodd" clip-rule="evenodd" d="M197 144C190.492 162.416 182.805 180.716 173.939 198.902C166.887 186.508 160.51 174.012 154.804 161.414C159.337 150.694 163.403 139.89 167 129C179.333 91.3333 187.833 48.3333 192.5 0H226.5C222.5 51.3333 212.667 99.3333 197 144ZM124.619 220.398C110.951 195.156 99.5784 169.69 90.5 144C74.8333 99.3333 65 51.3333 61 0H95C99.6667 48.3333 108.167 91.3333 120.5 129C126.936 147.97 134.749 166.681 143.94 185.135C149.671 196.644 155.939 208.053 162.742 219.362C162.865 219.566 162.988 219.77 163.111 219.974C166.754 226.011 170.551 232.02 174.5 238C197.833 202.667 215.667 166.333 228 129C240.333 91.3333 248.833 48.3333 253.5 0H287.5C283.5 51.3333 273.667 99.3333 258 144C242.333 188.333 219.833 232 190.5 275H158C153.056 267.752 148.306 260.486 143.75 253.2C136.939 242.309 130.562 231.375 124.619 220.398ZM59.5 129C69.5425 158.599 82.9374 187.569 99.6847 215.911C109.192 234.648 119.892 253.226 131.773 271.646C131.02 272.764 130.262 273.882 129.5 275H97C67.6667 232 45.1667 188.333 29.5 144C13.8333 99.3333 4 51.3333 0 0H34C38.6667 48.3333 47.1667 91.3333 59.5 129Z" fill="#F7D000"/>
</svg>
